<svg width="32" height="32" viewBox="0 0 32 32" fill="none" xmlns="http://www.w3.org/2000/svg">
<g clip-path="url(#clip0_64_257)">
<path d="M0 0V32H32V0H0ZM11.6 24H8.3V13.3H11.6V24ZM9.9 11.9C8.9 11.9 8 11 8 9.9C8 8.9 8.9 8 9.9 8C11 8 11.8 8.9 11.8 9.9C11.8 11 11 11.9 9.9 11.9ZM24 24H20.7V18.8C20.7 17.6 20.7 16 19 16C17.3 16 17 17.3 17 18.7V24H13.7V13.3H16.9V14.8C17.3 14 18.4 13.1 20 13.1C23.4 13.1 24 15.3 24 18.2V24Z" fill="white"/>
</g>
<defs>
<clipPath id="clip0_64_257">
<rect width="32" height="32" fill="white"/>
</clipPath>
</defs>
</svg>
