<svg width="32" height="33" viewBox="0 0 32 33" fill="none" xmlns="http://www.w3.org/2000/svg">
<g id="ic24-shopping-cart 1">
<g id="Group">
<path id="Vector" fill-rule="evenodd" clip-rule="evenodd" d="M11.3333 25.8333C11.8638 25.8333 12.3725 26.044 12.7476 26.4191C13.1226 26.7942 13.3333 27.3029 13.3333 27.8333C13.3333 28.3638 13.1226 28.8725 12.7476 29.2475C12.3725 29.6226 11.8638 29.8333 11.3333 29.8333C10.8029 29.8333 10.2942 29.6226 9.91913 29.2475C9.54406 28.8725 9.33334 28.3638 9.33334 27.8333C9.33334 27.3029 9.54406 26.7942 9.91913 26.4191C10.2942 26.044 10.8029 25.8333 11.3333 25.8333ZM23.3333 25.8333C23.8638 25.8333 24.3725 26.044 24.7476 26.4191C25.1226 26.7942 25.3333 27.3029 25.3333 27.8333C25.3333 28.3638 25.1226 28.8725 24.7476 29.2475C24.3725 29.6226 23.8638 29.8333 23.3333 29.8333C22.8029 29.8333 22.2942 29.6226 21.9191 29.2475C21.5441 28.8725 21.3333 28.3638 21.3333 27.8333C21.3333 27.3029 21.5441 26.7942 21.9191 26.4191C22.2942 26.044 22.8029 25.8333 23.3333 25.8333ZM4.00001 3.16666H6.66667C6.95942 3.16668 7.24402 3.26304 7.47656 3.44088C7.7091 3.61871 7.87664 3.86814 7.95334 4.15066L7.98401 4.29732L8.63068 8.49999H28C28.1864 8.49999 28.3706 8.53904 28.5409 8.61464C28.7113 8.69024 28.8638 8.8007 28.9888 8.93889C29.1138 9.07708 29.2085 9.23994 29.2667 9.41697C29.3249 9.59399 29.3453 9.78125 29.3267 9.96666L29.3013 10.1227L27.0987 20.0347C26.9104 20.8824 26.4513 21.6459 25.7908 22.2097C25.1303 22.7736 24.3042 23.1071 23.4373 23.16L23.1947 23.1667H11.6213C10.7064 23.1666 9.81912 22.8529 9.10747 22.2779C8.39582 21.7028 7.90281 20.9012 7.71067 20.0067L7.66801 19.7747L5.52267 5.83332H4.00001C3.66017 5.83295 3.3333 5.70282 3.08618 5.46953C2.83907 5.23623 2.69036 4.91739 2.67045 4.57813C2.65053 4.23887 2.76091 3.90482 2.97903 3.64421C3.19715 3.38361 3.50655 3.21613 3.84401 3.17599L4.00001 3.16666ZM26.3373 11.1667H9.04134L10.3027 19.3693C10.3471 19.6587 10.4855 19.9255 10.6966 20.1284C10.9077 20.3313 11.1797 20.4591 11.4707 20.492L11.6213 20.5H23.1947C23.4715 20.4998 23.7415 20.4134 23.967 20.2529C24.1926 20.0923 24.3625 19.8655 24.4533 19.604L24.496 19.456L26.3373 11.1667Z" fill="#171717"/>
</g>
</g>
</svg>
