<svg width="24" height="24" viewBox="0 0 24 24" fill="none" xmlns="http://www.w3.org/2000/svg">
<g id="tent-arrow-left-right 1" clip-path="url(#clip0_64_719)">
<g id="Group">
<path id="Vector" d="M23.7797 12.5296C24.0703 12.239 24.0703 11.7608 23.7797 11.4702L17.0297 4.72022C16.7391 4.42959 16.261 4.42959 15.9703 4.72022C15.6797 5.01084 15.6797 5.48896 15.9703 5.77959L21.4407 11.2499L0.750025 11.2499C0.337525 11.2499 2.31027e-05 11.5874 2.30667e-05 11.9999C2.30306e-05 12.4124 0.337525 12.7499 0.750025 12.7499L21.4407 12.7499L15.9703 18.2202C15.6797 18.5108 15.6797 18.989 15.9703 19.2796C16.261 19.5702 16.7391 19.5702 17.0297 19.2796L23.7797 12.5296Z" fill="#171717"/>
</g>
</g>
<defs>
<clipPath id="clip0_64_719">
<rect width="24" height="24" fill="white" transform="translate(24 24) rotate(-180)"/>
</clipPath>
</defs>
</svg>
