<svg width="32" height="32" viewBox="0 0 32 32" fill="none" xmlns="http://www.w3.org/2000/svg">
<g clip-path="url(#clip0_64_254)">
<path d="M32 6.1C30.8 6.6 29.6 7 28.2 7.1C29.6 6.3 30.6 5 31.1 3.5C29.8 4.3 28.4 4.8 26.9 5.1C25.7 3.8 24 3 22.2 3C18.6 3 15.6 5.9 15.6 9.6C15.6 10.1 15.7 10.6 15.8 11.1C10.3 10.8 5.5 8.2 2.2 4.2C1.6 5.2 1.3 6.3 1.3 7.5C1.3 9.8 2.5 11.8 4.2 13C3.1 13 2.1 12.7 1.2 12.2V12.3C1.2 15.5 3.5 18.1 6.5 18.7C5.9 18.8 5.4 18.9 4.8 18.9C4.4 18.9 4 18.9 3.6 18.8C4.4 21.4 6.9 23.3 9.7 23.4C7.5 25.2 4.6 26.2 1.5 26.2C1 26.2 0.400002 26.2 -0.0999985 26.1C2.9 27.9 6.4 29 10.1 29C22.2 29 28.8 19 28.8 10.3C28.8 10 28.8 9.7 28.8 9.5C30 8.5 31.1 7.4 32 6.1Z" fill="white"/>
</g>
<defs>
<clipPath id="clip0_64_254">
<rect width="32" height="32" fill="white"/>
</clipPath>
</defs>
</svg>
